# File created by Blade
# Date/Time:  Mon Sep 22 16:45:27 2014
# Frame Rate: 120.000 fps
#------------------------------------------------------
:FULLY-SPECIFIED
:DEGREES
2025
root 3.633648 37.479299 1.335802 -15.064775 6.903526 18.891945
RightUpLeg 13.272531 -6.013500 -12.855616
RightLeg 20.407624 -0.000000 -0.000000
RightFoot -23.999048 -22.455204 8.707248
RightToeBase 3.773625 -0.000000 -0.000000
LeftUpLeg -64.700504 27.893967 2.455428
LeftLeg 95.784881 -0.000000 -0.000000
LeftFoot 14.104927 26.210184 -21.355644
LeftToeBase 0.314127 -0.000000 -0.000000
Spine 27.405880 10.142253 -3.699912
RightShoulder 2.938784 -13.710134 -17.615177
RightArm 20.380869 27.098632 51.922537
RightForeArm 18.433980 -0.000000 101.297348
RightHand 10.616482 -0.000000 -25.957574
RightHandThumb1 -24.326973 -0.000000 -32.862282
LeftShoulder -30.866960 32.768679 -9.562699
LeftArm 24.188725 -16.349940 -76.102391
LeftForeArm 32.310277 -0.000000 23.781355
LeftHand -15.671809 -0.000000 -14.465542
LeftHandThumb1 -26.253704 0.000000 33.147579
Head 10.892729 -4.249685 -10.239291
2026
root 3.648912 37.482688 1.303353 -14.979180 6.796636 18.902264
RightUpLeg 13.081074 -6.099657 -12.895519
RightLeg 20.443160 -0.000000 -0.000000
RightFoot -23.909238 -22.584400 8.524068
RightToeBase 3.780384 -0.000000 -0.000000
LeftUpLeg -64.599446 28.025862 2.401821
LeftLeg 95.829770 -0.000000 -0.000000
LeftFoot 13.976176 26.260139 -21.504943
LeftToeBase 0.487930 -0.000000 -0.000000
Spine 27.429251 10.357556 -3.621504
RightShoulder 2.809774 -13.645750 -17.615896
RightArm 20.359212 27.119093 51.806114
RightForeArm 18.426940 -0.000000 101.291926
RightHand 10.649393 -0.000000 -25.884445
RightHandThumb1 -24.326973 -0.000000 -32.862282
LeftShoulder -31.087113 32.732887 -9.734402
LeftArm 23.772821 -16.192712 -76.226617
LeftForeArm 32.314525 -0.000000 25.022579
LeftHand -15.478120 -0.000000 -14.745952
LeftHandThumb1 -26.253704 0.000000 33.147579
Head 10.784308 -4.283749 -10.286107
2027
root 3.663359 37.486120 1.273681 -14.895623 6.718100 18.882213
RightUpLeg 12.914364 -6.223535 -12.919946
RightLeg 20.463647 -0.000000 -0.000000
RightFoot -23.860884 -22.550184 8.438814
RightToeBase 3.884018 -0.000000 -0.000000
LeftUpLeg -64.547403 28.208030 2.306060
LeftLeg 95.893177 -0.000000 -0.000000
LeftFoot 13.982113 26.321469 -21.571690
LeftToeBase 0.494940 -0.000000 -0.000000
Spine 27.424498 10.522233 -3.486642
RightShoulder 2.753918 -13.565017 -17.723030
RightArm 20.243478 27.114867 51.753842
RightForeArm 18.269975 0.000000 101.330672
RightHand 10.757868 -0.000000 -25.981286
RightHandThumb1 -24.326973 -0.000000 -32.862282
LeftShoulder -31.303893 32.752092 -9.963087
LeftArm 23.398402 -15.918542 -76.241062
LeftForeArm 32.022077 -0.000000 26.251450
LeftHand -15.433661 -0.000000 -14.642549
LeftHandThumb1 -26.253704 0.000000 33.147579
Head 10.769578 -4.348247 -10.382742
2028
root 3.678606 37.491648 1.240454 -14.807594 6.660836 18.880052
RightUpLeg 12.737509 -6.327148 -12.960809
RightLeg 20.502448 -0.000000 -0.000000
RightFoot -23.800433 -22.456386 8.407383
RightToeBase 3.909591 -0.000000 -0.000000
LeftUpLeg -64.502719 28.395756 2.157626
LeftLeg 95.944138 -0.000000 -0.000000
LeftFoot 14.119431 26.328218 -21.575917
LeftToeBase 0.288839 -0.000000 -0.000000
Spine 27.407349 10.670441 -3.379819
RightShoulder 2.715457 -13.690499 -17.808281
RightArm 20.298014 27.234505 51.731426
RightForeArm 17.937738 -0.000000 101.369431
RightHand 10.771978 -0.000000 -26.171025
RightHandThumb1 -24.326973 -0.000000 -32.862282
LeftShoulder -31.462493 32.816958 -10.197877
LeftArm 23.001636 -15.833160 -76.353703
LeftForeArm 31.742925 -0.000000 27.678798
LeftHand -15.394843 0.000000 -14.918027
LeftHandThumb1 -26.253704 0.000000 33.147579
Head 10.800985 -4.334441 -10.508150
2029
root 3.686192 37.496193 1.208035 -14.746641 6.602009 18.882468
RightUpLeg 12.588161 -6.334652 -12.967931
RightLeg 20.536593 -0.000000 -0.000000
RightFoot -23.756563 -22.471610 8.390697
RightToeBase 3.990072 -0.000000 -0.000000
LeftUpLeg -64.444707 28.669851 1.991407
LeftLeg 95.987131 -0.000000 -0.000000
LeftFoot 14.254249 26.365594 -21.715598
LeftToeBase 0.249743 -0.000000 -0.000000
Spine 27.468581 10.911454 -3.279206
RightShoulder 2.613132 -13.722414 -17.837368
RightArm 20.228956 27.326277 51.661625
RightForeArm 17.556583 -0.000000 101.445183
RightHand 10.742217 -0.000000 -26.533432
RightHandThumb1 -24.326973 -0.000000 -32.862282
LeftShoulder -31.662116 32.853780 -10.395740
LeftArm 22.701914 -15.614035 -76.403110
LeftForeArm 31.349817 -0.000000 29.145572
LeftHand -15.380629 -0.000000 -14.986996
LeftHandThumb1 -26.253704 0.000000 33.147579
Head 10.725444 -4.458319 -10.535255
2030
root 3.699826 37.497611 1.173217 -14.672604 6.619200 18.866333
RightUpLeg 12.449409 -6.411458 -12.986843
RightLeg 20.572386 -0.000000 -0.000000
RightFoot -23.734960 -22.412959 8.350255
RightToeBase 4.085597 -0.000000 -0.000000
LeftUpLeg -64.430058 28.870898 1.787729
LeftLeg 96.063285 -0.000000 -0.000000
LeftFoot 14.436240 26.340310 -21.782506
LeftToeBase 0.343519 -0.000000 -0.000000
Spine 27.530244 11.056576 -3.161300
RightShoulder 2.526521 -13.698892 -17.905959
RightArm 20.035502 27.364068 51.498859
RightForeArm 17.133046 -0.000000 101.555486
RightHand 10.631103 -0.000000 -26.924734
RightHandThumb1 -24.326973 -0.000000 -32.862282
LeftShoulder -31.869428 32.892505 -10.593111
LeftArm 22.415079 -15.430387 -76.516791
LeftForeArm 30.634244 0.000000 30.668929
LeftHand -15.342493 -0.000000 -15.025182
LeftHandThumb1 -26.253704 0.000000 33.147579
Head 10.635249 -4.592666 -10.629674
2031
root 3.714715 37.497139 1.141300 -14.608386 6.687263 18.826159
RightUpLeg 12.359114 -6.499552 -12.995087
RightLeg 20.571309 -0.000000 -0.000000
RightFoot -23.705489 -22.405629 8.363833
RightToeBase 4.041155 -0.000000 -0.000000
LeftUpLeg -64.429125 29.036359 1.598123
LeftLeg 96.172256 -0.000000 -0.000000
LeftFoot 14.720240 26.303482 -21.930477
LeftToeBase 0.041762 -0.000000 -0.000000
Spine 27.583955 11.141297 -3.007474
RightShoulder 2.454287 -13.707401 -18.005670
RightArm 19.871512 27.447537 51.415037
RightForeArm 16.785472 -0.000000 101.645163
RightHand 10.600267 0.000000 -27.160464
RightHandThumb1 -24.326973 -0.000000 -32.862282
LeftShoulder -32.101641 32.974632 -10.849049
LeftArm 22.180752 -15.191787 -76.569522
LeftForeArm 30.030425 -0.000000 32.250117
LeftHand -15.417102 -0.000000 -14.956197
LeftHandThumb1 -26.253704 0.000000 33.147579
Head 10.583421 -4.690304 -10.751516
2032
root 3.724290 37.495974 1.104874 -14.548474 6.821157 18.772279
RightUpLeg 12.291144 -6.583218 -12.985953
RightLeg 20.575987 -0.000000 -0.000000
RightFoot -23.725348 -22.283394 8.458826
RightToeBase 4.102092 -0.000000 -0.000000
LeftUpLeg -64.441613 29.157574 1.403456
LeftLeg 96.259584 -0.000000 -0.000000
LeftFoot 15.040749 26.230821 -22.076218
LeftToeBase 0.084517 -0.000000 -0.000000
Spine 27.673466 11.224328 -2.843239
RightShoulder 2.324487 -13.768087 -18.090836
RightArm 19.776096 27.595946 51.424698
RightForeArm 16.488798 -0.000000 101.710365
RightHand 10.606750 0.000000 -27.376576
RightHandThumb1 -24.326973 -0.000000 -32.862282
LeftShoulder -32.251313 32.998196 -10.992607
LeftArm 21.934186 -14.866738 -76.602640
LeftForeArm 29.457098 0.000000 33.858114
LeftHand -15.576919 0.000000 -14.678304
LeftHandThumb1 -26.253704 0.000000 33.147579
Head 10.505581 -4.829150 -10.811520
2033
root 3.737122 37.494488 1.067475 -14.461901 6.998494 18.742052
RightUpLeg 12.222386 -6.650676 -12.991995
RightLeg 20.550863 -0.000000 -0.000000
RightFoot -23.752402 -22.257276 8.536092
RightToeBase 4.193184 -0.000000 -0.000000
LeftUpLeg -64.468988 29.244898 1.165349
LeftLeg 96.344566 -0.000000 -0.000000
LeftFoot 15.338916 26.145823 -22.345298
LeftToeBase 0.107510 -0.000000 -0.000000
Spine 27.716763 11.244261 -2.725530
RightShoulder 2.274514 -13.840046 -18.185641
RightArm 19.601430 27.762814 51.364009
RightForeArm 16.208084 -0.000000 101.796615
RightHand 10.564692 0.000000 -27.613455
RightHandThumb1 -24.326973 -0.000000 -32.862282
LeftShoulder -32.441273 33.086245 -11.197555
LeftArm 21.750961 -14.526314 -76.608240
LeftForeArm 28.762622 -0.000000 35.531606
LeftHand -15.519259 -0.000000 -14.874212
LeftHandThumb1 -26.253704 0.000000 33.147579
Head 10.447899 -4.984033 -10.901594
2034
root 3.746895 37.491012 1.031639 -14.392234 7.225784 18.701580
RightUpLeg 12.197398 -6.705215 -12.972884
RightLeg 20.504494 -0.000000 -0.000000
RightFoot -23.795936 -22.297101 8.649732
RightToeBase 4.213291 -0.000000 -0.000000
LeftUpLeg -64.486315 29.304325 0.947860
LeftLeg 96.422965 -0.000000 -0.000000
LeftFoot 15.726413 26.003345 -22.553699
LeftToeBase 0.134832 -0.000000 -0.000000
Spine 27.797239 11.290371 -2.604421
RightShoulder 2.135437 -13.879534 -18.205431
RightArm 19.381464 27.898256 51.232382
RightForeArm 16.103203 -0.000000 101.859619
RightHand 10.545776 -0.000000 -27.917152
RightHandThumb1 -24.326973 -0.000000 -32.862282
LeftShoulder -32.558959 33.156260 -11.315453
LeftArm 21.566688 -14.146318 -76.596369
LeftForeArm 28.188631 -0.000000 37.292992
LeftHand -15.717965 0.000000 -14.748170
LeftHandThumb1 -26.253704 0.000000 33.147579
Head 10.376039 -5.227347 -10.935089
